A teenage surfer girl summons the courage to go back into the ocean after losing an arm in a shark attack.

Director:
Sean McNamara
Writers:
Sean McNamara (screenplay), Deborah Schwartz (screenplay), and 12 more credits »
Stars:
AnnaSophia Robb, Dennis Quaid and Helen Hunt 

Media info:

General
Complete name                    : E:\torrent2\Soul.Surfer.2011.BluRay rip.MKV.1080p.AVC.DTS=5.1-ACB-Team\Soul.Surfer.2011.BluRay rip.MKV.1080p.AVC.DTS=5.1-ACB-Team.mkv
Format                           : Matroska
File size                        : 9.26 GiB
Duration                         : 1h 46mn
Overall bit rate                 : 12.5 Mbps
Movie name                       : movie
Encoded date                     : UTC 2011-07-21 16:51:03
Writing application              : mkvmerge v3.2.0 ('Beginnings') built on Feb 12 2010 16:46:17
Writing library                  : libebml v0.7.9 + libmatroska v0.8.1

Video
ID                               : 1
Format                           : AVC
Format/Info                      : Advanced Video Codec
Format profile                   : High@L4.1
Format settings, CABAC           : Yes
Format settings, ReFrames        : 2 frames
Muxing mode                      : Container profile=Unknown@0.0
Codec ID                         : V_MPEG4/ISO/AVC
Duration                         : 1h 46mn
Bit rate mode                    : Variable
Bit rate                         : 11.0 Mbps
Maximum bit rate                 : 35.0 Mbps
Width                            : 1 920 pixels
Height                           : 1 080 pixels
Display aspect ratio             : 16:9
Frame rate                       : 23.976 fps
Color space                      : YUV
Chroma subsampling               : 4:2:0
Bit depth                        : 8 bits
Scan type                        : Progressive
Bits/(Pixel*Frame)               : 0.222
Stream size                      : 7.95 GiB (86%)
Writing library                  : x264 core 115 r2008 4c552d8
Encoding settings                : cabac=1 / ref=1 / deblock=1:0:0 / analyse=0x3:0x3 / me=dia / subme=1 / psy=1 / psy_rd=1.00:0.00 / mixed_ref=0 / me_range=16 / chroma_me=1 / trellis=0 / 8x8dct=1 / cqm=0 / deadzone=21,11 / fast_pskip=1 / chroma_qp_offset=0 / threads=3 / sliced_threads=0 / slices=4 / nr=0 / decimate=1 / interlaced=0 / bluray_compat=1 / constrained_intra=0 / bframes=3 / b_pyramid=0 / b_adapt=1 / b_bias=0 / direct=1 / weightb=1 / open_gop=0 / weightp=1 / keyint=24 / keyint_min=1 / scenecut=40 / intra_refresh=0 / rc_lookahead=0 / rc=abr / mbtree=0 / bitrate=11032 / ratetol=1.0 / qcomp=0.60 / qpmin=0 / qpmax=69 / qpstep=4 / vbv_maxrate=35000 / vbv_bufsize=30000 / nal_hrd=vbr / ip_ratio=1.10 / pb_ratio=1.10 / aq=1:1.00

Audio
ID                               : 2
Format                           : DTS
Format/Info                      : Digital Theater Systems
Codec ID                         : A_DTS
Duration                         : 1h 46mn
Bit rate mode                    : Constant
Bit rate                         : 1 510 Kbps
Channel(s)                       : 6 channels
Channel positions                : Front: L C R, Side: L R, LFE
Sampling rate                    : 48.0 KHz
Bit depth                        : 24 bits
Stream size                      : 1.12 GiB (12%)
Language                         : English

Text #1
ID                               : 3
Format                           : VobSub
Muxing mode                      : zlib
Codec ID                         : S_VOBSUB
Codec ID/Info                    : The same subtitle format used on DVDs
Language                         : English

Text #2
ID                               : 4
Format                           : VobSub
Muxing mode                      : zlib
Codec ID                         : S_VOBSUB
Codec ID/Info                    : The same subtitle format used on DVDs
Language                         : French

Text #3
ID                               : 5
Format                           : VobSub
Muxing mode                      : zlib
Codec ID                         : S_VOBSUB
Codec ID/Info                    : The same subtitle format used on DVDs
Language                         : Portuguese

Text #4
ID                               : 6
Format                           : VobSub
Muxing mode                      : zlib
Codec ID                         : S_VOBSUB
Codec ID/Info                    : The same subtitle format used on DVDs
Language                         : Spanish

Text #5
ID                               : 7
Format                           : UTF-8
Codec ID                         : S_TEXT/UTF8
Codec ID/Info                    : UTF-8 Plain Text
Language                         : Dutch

Menu
00:00:00.000                     : en:00:00:00.000
00:07:22.483                     : en:00:07:22.483
00:12:47.266                     : en:00:12:47.266
00:18:21.600                     : en:00:18:21.600
00:25:32.822                     : en:00:25:32.822
00:32:06.174                     : en:00:32:06.174
00:36:42.992                     : en:00:36:42.992
00:42:21.789                     : en:00:42:21.789
00:47:09.243                     : en:00:47:09.243
00:54:02.989                     : en:00:54:02.989
00:57:30.447                     : en:00:57:30.447
01:05:23.252                     : en:01:05:23.252
01:10:24.386                     : en:01:10:24.386
01:23:11.403                     : en:01:23:11.403
01:30:30.174                     : en:01:30:30.174
01:36:11.724                     : en:01:36:11.724

